<svg id="SvgjsSvg1001" width="288" height="288" xmlns="http://www.w3.org/2000/svg" version="1.1" xmlns:xlink="http://www.w3.org/1999/xlink" xmlns:svgjs="http://svgjs.com/svgjs"><defs id="SvgjsDefs1002"></defs><g id="SvgjsG1008" transform="matrix(1,0,0,1,0,0)"><svg xmlns="http://www.w3.org/2000/svg" width="288" height="288" enable-background="new 0 0 508.717 508.717" viewBox="0 0 508.717 508.717"><path d="M480.837 20.886c-1.68 0-3.042 1.362-3.042 3.042s1.362 3.042 3.042 3.042 3.042-1.362 3.042-3.042-1.362-3.042-3.042-3.042zM491.012 36.407c1.68 0 3.042-1.362 3.042-3.042s-1.362-3.042-3.042-3.042-3.042 1.362-3.042 3.042 1.362 3.042 3.042 3.042zM483.879 43.54c0-1.68-1.362-3.042-3.042-3.042-.878 0-1.663.377-2.218.972-1.346-2.283-2.964-4.385-4.815-6.26.395-.513.639-1.148.639-1.845 0-1.68-1.362-3.042-3.042-3.042-.889 0-1.682.388-2.238.997-5.154-3.554-11.393-5.641-18.113-5.641h-393.383c-17.639 0-31.989 14.351-31.989 31.99v393.381c0 17.376 13.928 31.55 31.204 31.97-.221.421-.357.894-.357 1.402 0 1.68 1.362 3.042 3.042 3.042s3.042-1.362 3.042-3.042c0-.501-.132-.965-.346-1.382h14.22c-.214.417-.346.881-.346 1.382 0 1.68 1.362 3.042 3.042 3.042s3.042-1.362 3.042-3.042c0-.501-.132-.965-.346-1.382h14.22c-.214.417-.346.881-.346 1.382 0 1.68 1.362 3.042 3.042 3.042s3.042-1.362 3.042-3.042c0-.501-.132-.965-.346-1.382h14.22c-.214.417-.346.881-.346 1.382 0 1.68 1.362 3.042 3.042 3.042s3.042-1.362 3.042-3.042c0-.501-.132-.965-.346-1.382h14.22c-.214.417-.346.881-.346 1.382 0 1.68 1.362 3.042 3.042 3.042s3.042-1.362 3.042-3.042c0-.501-.133-.965-.346-1.382h14.22c-.214.417-.346.881-.346 1.382 0 1.68 1.362 3.042 3.042 3.042s3.042-1.362 3.042-3.042c0-.501-.132-.965-.346-1.382h14.22c-.214.417-.346.881-.346 1.382 0 1.68 1.362 3.042 3.042 3.042s3.042-1.362 3.042-3.042c0-.501-.132-.965-.346-1.382h14.22c-.214.417-.346.881-.346 1.382 0 1.68 1.362 3.042 3.042 3.042s3.042-1.362 3.042-3.042c0-.501-.132-.965-.346-1.382h14.22c-.214.417-.346.881-.346 1.382 0 1.68 1.362 3.042 3.042 3.042s3.042-1.362 3.042-3.042c0-.501-.132-.965-.346-1.382h14.22c-.214.417-.346.881-.346 1.382 0 1.68 1.362 3.042 3.042 3.042s3.042-1.362 3.042-3.042c0-.501-.132-.965-.346-1.382h14.22c-.214.417-.346.881-.346 1.382 0 1.68 1.362 3.042 3.042 3.042s3.042-1.362 3.042-3.042c0-.501-.132-.965-.347-1.382h14.22c-.214.417-.346.881-.346 1.382 0 1.68 1.362 3.042 3.042 3.042s3.042-1.362 3.042-3.042c0-.501-.132-.965-.346-1.382h14.22c-.214.417-.346.881-.346 1.382 0 1.68 1.362 3.042 3.042 3.042s3.042-1.362 3.042-3.042c0-.501-.132-.965-.346-1.382h14.22c-.214.417-.346.881-.346 1.382 0 1.68 1.362 3.042 3.042 3.042s3.042-1.362 3.042-3.042c0-.501-.133-.965-.346-1.382h14.22c-.214.417-.346.881-.346 1.382 0 1.68 1.362 3.042 3.042 3.042s3.042-1.362 3.042-3.042c0-.501-.132-.965-.346-1.382h14.22c-.214.417-.346.881-.346 1.382 0 1.68 1.362 3.042 3.042 3.042s3.042-1.362 3.042-3.042c0-.501-.132-.965-.346-1.382h14.22c-.214.417-.346.881-.346 1.382 0 1.68 1.362 3.042 3.042 3.042s3.042-1.362 3.042-3.042c0-.501-.132-.965-.346-1.382h14.22c-.214.417-.346.881-.346 1.382 0 1.68 1.362 3.042 3.042 3.042s3.042-1.362 3.042-3.042c0-.501-.132-.965-.346-1.382h14.22c-.214.417-.346.881-.346 1.382 0 1.68 1.362 3.042 3.042 3.042s3.042-1.362 3.042-3.042c0-.501-.132-.965-.346-1.382h14.22c-.214.417-.346.881-.346 1.382 0 1.68 1.362 3.042 3.042 3.042s3.042-1.362 3.042-3.042c0-.501-.132-.965-.347-1.382h14.22c-.214.417-.346.881-.346 1.382 0 1.68 1.362 3.042 3.042 3.042s3.042-1.362 3.042-3.042c0-.571-.167-1.1-.441-1.557 13.734-1.432 24.905-11.591 27.869-24.817.959-.512 1.62-1.51 1.62-2.674 0-.853-.354-1.622-.92-2.175.047-.711.08-1.426.08-2.148v-13.199c.518-.545.84-1.278.84-2.089s-.322-1.544-.84-2.089v-15.434c.518-.545.84-1.278.84-2.089s-.322-1.543-.84-2.089v-15.433c.518-.545.84-1.278.84-2.089s-.322-1.544-.84-2.089v-15.434c.518-.545.84-1.278.84-2.089s-.322-1.544-.84-2.089v-15.434c.518-.545.84-1.278.84-2.089s-.322-1.543-.84-2.089v-15.433c.518-.545.84-1.278.84-2.089s-.322-1.544-.84-2.089v-15.434c.518-.545.84-1.278.84-2.089s-.322-1.543-.84-2.089v-15.433c.518-.545.84-1.278.84-2.089s-.322-1.544-.84-2.089v-15.434c.518-.545.84-1.278.84-2.089s-.322-1.543-.84-2.089v-15.433c.518-.545.84-1.278.84-2.089s-.322-1.544-.84-2.089v-15.434c.518-.545.84-1.278.84-2.089s-.322-1.544-.84-2.089v-15.433c.518-.545.84-1.278.84-2.089s-.322-1.544-.84-2.089v-15.434c.518-.545.84-1.278.84-2.089s-.322-1.544-.84-2.089v-15.434c.518-.545.84-1.278.84-2.089s-.322-1.543-.84-2.089v-15.433c.518-.545.84-1.278.84-2.089s-.322-1.544-.84-2.089v-15.434c.518-.545.84-1.278.84-2.089s-.322-1.544-.84-2.089v-15.433c.518-.545.84-1.278.84-2.089s-.322-1.544-.84-2.089v-15.434c.518-.545.84-1.278.84-2.089s-.322-1.544-.84-2.089v-15.427c.518-.545.84-1.278.84-2.089s-.322-1.544-.84-2.089v-15.433c.518-.545.84-1.278.84-2.089s-.322-1.544-.84-2.089v-3.394c0-3.904-.706-7.646-1.992-11.108 1.564-.109 2.816-1.412 2.816-3.019zm-8.84 407.51c0 3.924-.953 7.628-2.631 10.902-.317-.112-.652-.184-1.007-.184-1.68 0-3.042 1.362-3.042 3.042 0 .766.293 1.458.761 1.993-1.894 2.169-4.167 3.998-6.72 5.375-.361-.151-.758-.236-1.174-.236-1.291 0-2.387.807-2.829 1.941-2.317.747-4.785 1.155-7.347 1.155h-6.399c0-.018.005-.036.005-.055 0-1.68-1.362-3.042-3.042-3.042s-3.042 1.362-3.042 3.042c0 .019.005.036.005.055h-13.537c0-.018.005-.036.005-.055 0-1.68-1.362-3.042-3.042-3.042s-3.042 1.362-3.042 3.042c0 .019.005.036.005.055h-13.538c0-.018.006-.036.006-.055 0-1.68-1.362-3.042-3.042-3.042s-3.042 1.362-3.042 3.042c0 .019.005.036.006.055h-13.538c0-.018.005-.036.005-.055 0-1.68-1.362-3.042-3.042-3.042s-3.042 1.362-3.042 3.042c0 .019.005.036.005.055h-13.538c0-.018.005-.036.005-.055 0-1.68-1.362-3.042-3.042-3.042s-3.042 1.362-3.042 3.042c0 .019.005.036.005.055h-13.538c0-.018.006-.036.006-.055 0-1.68-1.362-3.042-3.042-3.042s-3.042 1.362-3.042 3.042c0 .019.005.036.006.055h-13.538c0-.018.005-.036.005-.055 0-1.68-1.362-3.042-3.042-3.042s-3.042 1.362-3.042 3.042c0 .019.005.036.006.055h-13.539c.001-.018.006-.036.006-.055 0-1.68-1.362-3.042-3.042-3.042s-3.042 1.362-3.042 3.042c0 .019.005.036.005.055h-13.538c0-.018.006-.036.006-.055 0-1.68-1.362-3.042-3.042-3.042s-3.042 1.362-3.042 3.042c0 .019.005.036.006.055h-13.538c0-.018.005-.036.005-.055 0-1.68-1.362-3.042-3.042-3.042s-3.042 1.362-3.042 3.042c0 .019.005.036.006.055h-13.538c0-.018.005-.036.005-.055 0-1.68-1.362-3.042-3.042-3.042s-3.042 1.362-3.042 3.042c0 .019.005.036.005.055h-13.538c0-.018.006-.036.006-.055 0-1.68-1.362-3.042-3.042-3.042s-3.042 1.362-3.042 3.042c0 .019.005.036.006.055h-13.538c0-.018.005-.036.005-.055 0-1.68-1.362-3.042-3.042-3.042s-3.042 1.362-3.042 3.042c0 .019.005.036.005.055h-13.538c0-.018.005-.036.005-.055 0-1.68-1.362-3.042-3.042-3.042s-3.042 1.362-3.042 3.042c0 .019.005.036.005.055h-13.538c.001-.018.006-.036.006-.055 0-1.68-1.362-3.042-3.042-3.042s-3.042 1.362-3.042 3.042c0 .019.005.036.006.055h-13.538c0-.018.005-.036.005-.055 0-1.68-1.362-3.042-3.042-3.042s-3.042 1.362-3.042 3.042c0 .019.005.036.005.055h-13.538c.001-.018.006-.036.006-.055 0-1.68-1.362-3.042-3.042-3.042s-3.042 1.362-3.042 3.042c0 .019.005.036.005.055h-13.538c0-.018.006-.036.006-.055 0-1.68-1.362-3.042-3.042-3.042s-3.042 1.362-3.042 3.042c0 .019.005.036.006.055h-13.538c0-.018.005-.036.005-.055 0-1.68-1.362-3.042-3.042-3.042s-3.042 1.362-3.042 3.042c0 .019.005.036.006.055h-13.539c.001-.018.006-.036.006-.055 0-1.68-1.362-3.042-3.042-3.042s-3.042 1.362-3.042 3.042c0 .019.005.036.006.055h-8.3c-1.817 0-3.585-.21-5.287-.595-.256-1.421-1.492-2.502-2.987-2.502-.775 0-1.474.298-2.011.775-2.576-1.228-4.897-2.903-6.869-4.922 1.413-.262 2.485-1.497 2.485-2.986 0-1.68-1.362-3.042-3.042-3.042-1.227 0-2.278.73-2.759 1.776-2.231-3.642-3.519-7.92-3.519-12.495v-393.379c0-13.228 10.762-23.99 23.989-23.99h393.382c13.229 0 23.99 10.762 23.99 23.99zM491.012 56.018c1.68 0 3.042-1.362 3.042-3.042s-1.362-3.042-3.042-3.042-3.042 1.362-3.042 3.042 1.362 3.042 3.042 3.042zM491.012 75.629c1.68 0 3.042-1.362 3.042-3.042s-1.362-3.041-3.042-3.041-3.042 1.362-3.042 3.041c0 1.68 1.362 3.042 3.042 3.042zM491.012 95.24c1.68 0 3.042-1.362 3.042-3.042s-1.362-3.042-3.042-3.042-3.042 1.362-3.042 3.042 1.362 3.042 3.042 3.042zM491.012 114.851c1.68 0 3.042-1.362 3.042-3.042s-1.362-3.042-3.042-3.042-3.042 1.362-3.042 3.042 1.362 3.042 3.042 3.042zM491.012 134.462c1.68 0 3.042-1.362 3.042-3.042s-1.362-3.042-3.042-3.042-3.042 1.362-3.042 3.042 1.362 3.042 3.042 3.042zM491.012 154.073c1.68 0 3.042-1.362 3.042-3.042s-1.362-3.042-3.042-3.042-3.042 1.362-3.042 3.042c0 1.681 1.362 3.042 3.042 3.042zM491.012 173.684c1.68 0 3.042-1.362 3.042-3.042s-1.362-3.041-3.042-3.041-3.042 1.362-3.042 3.041c0 1.68 1.362 3.042 3.042 3.042zM491.012 193.296c1.68 0 3.042-1.362 3.042-3.042s-1.362-3.042-3.042-3.042-3.042 1.362-3.042 3.042 1.362 3.042 3.042 3.042zM491.012 212.907c1.68 0 3.042-1.362 3.042-3.042s-1.362-3.042-3.042-3.042-3.042 1.362-3.042 3.042 1.362 3.042 3.042 3.042zM491.012 232.518c1.68 0 3.042-1.362 3.042-3.042s-1.362-3.042-3.042-3.042-3.042 1.362-3.042 3.042 1.362 3.042 3.042 3.042zM491.012 252.129c1.68 0 3.042-1.362 3.042-3.042s-1.362-3.042-3.042-3.042-3.042 1.362-3.042 3.042 1.362 3.042 3.042 3.042zM491.012 271.74c1.68 0 3.042-1.362 3.042-3.042s-1.362-3.042-3.042-3.042-3.042 1.362-3.042 3.042 1.362 3.042 3.042 3.042zM491.012 291.351c1.68 0 3.042-1.362 3.042-3.042s-1.362-3.042-3.042-3.042-3.042 1.362-3.042 3.042 1.362 3.042 3.042 3.042zM491.012 310.962c1.68 0 3.042-1.362 3.042-3.042s-1.362-3.041-3.042-3.041-3.042 1.362-3.042 3.041c0 1.68 1.362 3.042 3.042 3.042zM491.012 330.573c1.68 0 3.042-1.362 3.042-3.042s-1.362-3.042-3.042-3.042-3.042 1.362-3.042 3.042c0 1.681 1.362 3.042 3.042 3.042zM491.012 350.184c1.68 0 3.042-1.362 3.042-3.042s-1.362-3.042-3.042-3.042-3.042 1.362-3.042 3.042 1.362 3.042 3.042 3.042zM491.012 369.796c1.68 0 3.042-1.362 3.042-3.042s-1.362-3.042-3.042-3.042-3.042 1.362-3.042 3.042 1.362 3.042 3.042 3.042zM491.012 389.407c1.68 0 3.042-1.362 3.042-3.042s-1.362-3.042-3.042-3.042-3.042 1.362-3.042 3.042 1.362 3.042 3.042 3.042zM491.012 409.018c1.68 0 3.042-1.362 3.042-3.042s-1.362-3.041-3.042-3.041-3.042 1.362-3.042 3.041c0 1.68 1.362 3.042 3.042 3.042zM491.012 428.629c1.68 0 3.042-1.362 3.042-3.042s-1.362-3.042-3.042-3.042-3.042 1.362-3.042 3.042 1.362 3.042 3.042 3.042zM491.012 448.24c1.68 0 3.042-1.362 3.042-3.042s-1.362-3.041-3.042-3.041-3.042 1.362-3.042 3.041c0 1.68 1.362 3.042 3.042 3.042zM491.012 467.851c1.68 0 3.042-1.362 3.042-3.042s-1.362-3.042-3.042-3.042-3.042 1.362-3.042 3.042 1.362 3.042 3.042 3.042z" fill="#a78bfa" class="color000 svgShape"></path><circle cx="480.837" cy="474.984" r="3.042" fill="#a78bfa" class="color000 svgShape"></circle><path d="M471.4 16.796c1.68 0 3.042-1.362 3.042-3.042s-1.362-3.042-3.042-3.042-3.042 1.362-3.042 3.042 1.362 3.042 3.042 3.042zM461.226 26.97c1.68 0 3.042-1.362 3.042-3.042s-1.362-3.042-3.042-3.042-3.042 1.362-3.042 3.042 1.362 3.042 3.042 3.042zM461.226 40.498c-1.68 0-3.042 1.362-3.042 3.042s1.362 3.042 3.042 3.042 3.042-1.362 3.042-3.042c-.001-1.681-1.362-3.042-3.042-3.042zM471.4 56.018c1.68 0 3.042-1.362 3.042-3.042s-1.362-3.042-3.042-3.042-3.042 1.362-3.042 3.042 1.362 3.042 3.042 3.042zM461.226 60.109c-1.68 0-3.042 1.362-3.042 3.042s1.362 3.042 3.042 3.042 3.042-1.362 3.042-3.042c-.001-1.681-1.362-3.042-3.042-3.042zM471.4 75.629c1.68 0 3.042-1.362 3.042-3.042s-1.362-3.041-3.042-3.041-3.042 1.362-3.042 3.041c0 1.68 1.362 3.042 3.042 3.042zM461.226 79.72c-1.68 0-3.042 1.362-3.042 3.042s1.362 3.042 3.042 3.042 3.042-1.362 3.042-3.042c-.001-1.68-1.362-3.042-3.042-3.042zM471.4 95.24c1.68 0 3.042-1.362 3.042-3.042s-1.362-3.042-3.042-3.042-3.042 1.362-3.042 3.042 1.362 3.042 3.042 3.042zM461.226 99.331c-1.68 0-3.042 1.362-3.042 3.042s1.362 3.042 3.042 3.042 3.042-1.362 3.042-3.042-1.362-3.042-3.042-3.042zM471.4 114.851c1.68 0 3.042-1.362 3.042-3.042s-1.362-3.042-3.042-3.042-3.042 1.362-3.042 3.042 1.362 3.042 3.042 3.042zM461.226 118.942c-1.68 0-3.042 1.362-3.042 3.042s1.362 3.042 3.042 3.042 3.042-1.362 3.042-3.042c-.001-1.68-1.362-3.042-3.042-3.042zM471.4 134.462c1.68 0 3.042-1.362 3.042-3.042s-1.362-3.042-3.042-3.042-3.042 1.362-3.042 3.042 1.362 3.042 3.042 3.042zM461.226 138.553c-1.68 0-3.042 1.362-3.042 3.042s1.362 3.042 3.042 3.042 3.042-1.362 3.042-3.042c-.001-1.68-1.362-3.042-3.042-3.042zM471.4 154.073c1.68 0 3.042-1.362 3.042-3.042s-1.362-3.042-3.042-3.042-3.042 1.362-3.042 3.042c0 1.681 1.362 3.042 3.042 3.042zM461.226 158.164c-1.68 0-3.042 1.362-3.042 3.042s1.362 3.042 3.042 3.042 3.042-1.362 3.042-3.042c-.001-1.68-1.362-3.042-3.042-3.042zM471.4 173.684c1.68 0 3.042-1.362 3.042-3.042s-1.362-3.041-3.042-3.041-3.042 1.362-3.042 3.041c0 1.68 1.362 3.042 3.042 3.042zM461.226 177.775c-1.68 0-3.042 1.362-3.042 3.042s1.362 3.042 3.042 3.042 3.042-1.362 3.042-3.042c-.001-1.68-1.362-3.042-3.042-3.042zM471.4 193.296c1.68 0 3.042-1.362 3.042-3.042s-1.362-3.042-3.042-3.042-3.042 1.362-3.042 3.042 1.362 3.042 3.042 3.042zM461.226 197.386c-1.68 0-3.042 1.362-3.042 3.042s1.362 3.042 3.042 3.042 3.042-1.362 3.042-3.042c-.001-1.68-1.362-3.042-3.042-3.042zM471.4 212.907c1.68 0 3.042-1.362 3.042-3.042s-1.362-3.042-3.042-3.042-3.042 1.362-3.042 3.042 1.362 3.042 3.042 3.042zM461.226 216.998c-1.68 0-3.042 1.362-3.042 3.042s1.362 3.042 3.042 3.042 3.042-1.362 3.042-3.042c-.001-1.68-1.362-3.042-3.042-3.042zM471.4 232.518c1.68 0 3.042-1.362 3.042-3.042s-1.362-3.042-3.042-3.042-3.042 1.362-3.042 3.042 1.362 3.042 3.042 3.042zM461.226 236.609c-1.68 0-3.042 1.362-3.042 3.042s1.362 3.042 3.042 3.042 3.042-1.362 3.042-3.042c-.001-1.681-1.362-3.042-3.042-3.042zM471.4 252.129c1.68 0 3.042-1.362 3.042-3.042s-1.362-3.042-3.042-3.042-3.042 1.362-3.042 3.042 1.362 3.042 3.042 3.042zM461.226 256.22c-1.68 0-3.042 1.362-3.042 3.042s1.362 3.041 3.042 3.041 3.042-1.362 3.042-3.041c-.001-1.68-1.362-3.042-3.042-3.042zM471.4 271.74c1.68 0 3.042-1.362 3.042-3.042s-1.362-3.042-3.042-3.042-3.042 1.362-3.042 3.042 1.362 3.042 3.042 3.042zM461.226 275.831c-1.68 0-3.042 1.362-3.042 3.042s1.362 3.042 3.042 3.042 3.042-1.362 3.042-3.042c-.001-1.68-1.362-3.042-3.042-3.042zM471.4 291.351c1.68 0 3.042-1.362 3.042-3.042s-1.362-3.042-3.042-3.042-3.042 1.362-3.042 3.042 1.362 3.042 3.042 3.042zM461.226 295.442c-1.68 0-3.042 1.362-3.042 3.042s1.362 3.042 3.042 3.042 3.042-1.362 3.042-3.042c-.001-1.68-1.362-3.042-3.042-3.042zM471.4 310.962c1.68 0 3.042-1.362 3.042-3.042s-1.362-3.041-3.042-3.041-3.042 1.362-3.042 3.041c0 1.68 1.362 3.042 3.042 3.042zM461.226 315.053c-1.68 0-3.042 1.362-3.042 3.042s1.362 3.042 3.042 3.042 3.042-1.362 3.042-3.042c-.001-1.68-1.362-3.042-3.042-3.042zM471.4 330.573c1.68 0 3.042-1.362 3.042-3.042s-1.362-3.042-3.042-3.042-3.042 1.362-3.042 3.042c0 1.681 1.362 3.042 3.042 3.042zM461.226 334.664c-1.68 0-3.042 1.362-3.042 3.042s1.362 3.042 3.042 3.042 3.042-1.362 3.042-3.042c-.001-1.68-1.362-3.042-3.042-3.042zM471.4 350.184c1.68 0 3.042-1.362 3.042-3.042s-1.362-3.042-3.042-3.042-3.042 1.362-3.042 3.042 1.362 3.042 3.042 3.042zM461.226 354.276c-1.68 0-3.042 1.362-3.042 3.042s1.362 3.042 3.042 3.042 3.042-1.362 3.042-3.042c-.001-1.681-1.362-3.042-3.042-3.042zM471.4 369.796c1.68 0 3.042-1.362 3.042-3.042s-1.362-3.042-3.042-3.042-3.042 1.362-3.042 3.042 1.362 3.042 3.042 3.042zM461.226 373.886c-1.68 0-3.042 1.362-3.042 3.042s1.362 3.042 3.042 3.042 3.042-1.362 3.042-3.042c-.001-1.68-1.362-3.042-3.042-3.042zM471.4 389.407c1.68 0 3.042-1.362 3.042-3.042s-1.362-3.042-3.042-3.042-3.042 1.362-3.042 3.042 1.362 3.042 3.042 3.042zM461.226 393.498c-1.68 0-3.042 1.362-3.042 3.042s1.362 3.042 3.042 3.042 3.042-1.362 3.042-3.042c-.001-1.68-1.362-3.042-3.042-3.042zM471.4 409.018c1.68 0 3.042-1.362 3.042-3.042s-1.362-3.041-3.042-3.041-3.042 1.362-3.042 3.041c0 1.68 1.362 3.042 3.042 3.042zM461.226 413.109c-1.68 0-3.042 1.362-3.042 3.042s1.362 3.042 3.042 3.042 3.042-1.362 3.042-3.042c-.001-1.68-1.362-3.042-3.042-3.042zM471.4 428.629c1.68 0 3.042-1.362 3.042-3.042s-1.362-3.042-3.042-3.042-3.042 1.362-3.042 3.042 1.362 3.042 3.042 3.042zM461.226 432.72c-1.68 0-3.042 1.362-3.042 3.042s1.362 3.042 3.042 3.042 3.042-1.362 3.042-3.042c-.001-1.68-1.362-3.042-3.042-3.042zM471.4 448.24c1.68 0 3.042-1.362 3.042-3.042s-1.362-3.041-3.042-3.041-3.042 1.362-3.042 3.041c0 1.68 1.362 3.042 3.042 3.042zM461.226 452.331c-1.68 0-3.042 1.362-3.042 3.042s1.362 3.042 3.042 3.042 3.042-1.362 3.042-3.042c-.001-1.68-1.362-3.042-3.042-3.042zM471.4 481.379c-1.68 0-3.042 1.362-3.042 3.042s1.362 3.042 3.042 3.042 3.042-1.362 3.042-3.042c0-1.681-1.361-3.042-3.042-3.042zM461.226 491.553c-1.68 0-3.042 1.362-3.042 3.042s1.362 3.042 3.042 3.042 3.042-1.362 3.042-3.042c-.001-1.68-1.362-3.042-3.042-3.042zM451.789 442.156c-1.68 0-3.042 1.362-3.042 3.041 0 1.68 1.362 3.042 3.042 3.042s3.042-1.362 3.042-3.042c0-1.679-1.362-3.041-3.042-3.041zM441.615 452.331c-1.68 0-3.042 1.362-3.042 3.042s1.362 3.042 3.042 3.042 3.042-1.362 3.042-3.042c-.001-1.68-1.362-3.042-3.042-3.042z" fill="#a78bfa" class="color000 svgShape"></path><circle cx="451.789" cy="464.809" r="3.042" fill="#a78bfa" class="color000 svgShape"></circle><path d="m441.615 491.553c-1.68 0-3.042 1.362-3.042 3.042s1.362 3.042 3.042 3.042 3.042-1.362 3.042-3.042c-.001-1.68-1.362-3.042-3.042-3.042z" fill="#a78bfa" class="color000 svgShape"></path><circle cx="432.178" cy="464.809" r="3.042" fill="#a78bfa" class="color000 svgShape"></circle><path d="m422.003 491.553c-1.68 0-3.042 1.362-3.042 3.042s1.362 3.042 3.042 3.042 3.042-1.362 3.042-3.042-1.361-3.042-3.042-3.042z" fill="#a78bfa" class="color000 svgShape"></path><circle cx="412.567" cy="464.809" r="3.042" fill="#a78bfa" class="color000 svgShape"></circle><path d="m402.392 491.553c-1.68 0-3.042 1.362-3.042 3.042s1.362 3.042 3.042 3.042 3.042-1.362 3.042-3.042-1.362-3.042-3.042-3.042z" fill="#a78bfa" class="color000 svgShape"></path><circle cx="392.956" cy="464.809" r="3.042" fill="#a78bfa" class="color000 svgShape"></circle><path d="m382.781 491.553c-1.68 0-3.042 1.362-3.042 3.042s1.362 3.042 3.042 3.042 3.042-1.362 3.042-3.042-1.362-3.042-3.042-3.042z" fill="#a78bfa" class="color000 svgShape"></path><circle cx="373.345" cy="464.809" r="3.042" fill="#a78bfa" class="color000 svgShape"></circle><path d="M363.17 491.553c-1.68 0-3.042 1.362-3.042 3.042s1.362 3.042 3.042 3.042 3.042-1.362 3.042-3.042-1.362-3.042-3.042-3.042zM353.734 461.767c-1.68 0-3.042 1.362-3.042 3.042s1.362 3.042 3.042 3.042 3.042-1.362 3.042-3.042-1.362-3.042-3.042-3.042zM343.559 491.553c-1.68 0-3.042 1.362-3.042 3.042s1.362 3.042 3.042 3.042 3.042-1.362 3.042-3.042-1.362-3.042-3.042-3.042z" fill="#a78bfa" class="color000 svgShape"></path><circle cx="334.122" cy="464.809" r="3.042" fill="#a78bfa" class="color000 svgShape"></circle><path d="m323.948 491.553c-1.68 0-3.042 1.362-3.042 3.042s1.362 3.042 3.042 3.042 3.042-1.362 3.042-3.042-1.362-3.042-3.042-3.042z" fill="#a78bfa" class="color000 svgShape"></path><circle cx="314.511" cy="464.809" r="3.042" fill="#a78bfa" class="color000 svgShape"></circle><path d="M304.337 491.553c-1.68 0-3.042 1.362-3.042 3.042s1.362 3.042 3.042 3.042 3.042-1.362 3.042-3.042-1.362-3.042-3.042-3.042zM294.9 461.767c-1.68 0-3.042 1.362-3.042 3.042s1.362 3.042 3.042 3.042 3.042-1.362 3.042-3.042-1.362-3.042-3.042-3.042zM284.726 491.553c-1.68 0-3.042 1.362-3.042 3.042s1.362 3.042 3.042 3.042 3.042-1.362 3.042-3.042c-.001-1.68-1.362-3.042-3.042-3.042z" fill="#a78bfa" class="color000 svgShape"></path><circle cx="275.289" cy="464.809" r="3.042" fill="#a78bfa" class="color000 svgShape"></circle><path d="m265.115 491.553c-1.68 0-3.042 1.362-3.042 3.042s1.362 3.042 3.042 3.042 3.042-1.362 3.042-3.042c-.001-1.68-1.363-3.042-3.042-3.042z" fill="#a78bfa" class="color000 svgShape"></path><circle cx="255.678" cy="464.809" r="3.042" fill="#a78bfa" class="color000 svgShape"></circle><path d="m245.503 491.553c-1.68 0-3.042 1.362-3.042 3.042s1.362 3.042 3.042 3.042 3.042-1.362 3.042-3.042-1.362-3.042-3.042-3.042z" fill="#a78bfa" class="color000 svgShape"></path><circle cx="236.067" cy="464.809" r="3.042" fill="#a78bfa" class="color000 svgShape"></circle><path d="m225.892 491.553c-1.68 0-3.042 1.362-3.042 3.042s1.362 3.042 3.042 3.042 3.042-1.362 3.042-3.042-1.362-3.042-3.042-3.042z" fill="#a78bfa" class="color000 svgShape"></path><circle cx="216.456" cy="464.809" r="3.042" fill="#a78bfa" class="color000 svgShape"></circle><path d="m206.281 491.553c-1.68 0-3.042 1.362-3.042 3.042s1.362 3.042 3.042 3.042 3.042-1.362 3.042-3.042-1.362-3.042-3.042-3.042z" fill="#a78bfa" class="color000 svgShape"></path><circle cx="196.845" cy="464.809" r="3.042" fill="#a78bfa" class="color000 svgShape"></circle><path d="m186.67 491.553c-1.68 0-3.042 1.362-3.042 3.042s1.362 3.042 3.042 3.042 3.042-1.362 3.042-3.042-1.362-3.042-3.042-3.042z" fill="#a78bfa" class="color000 svgShape"></path><circle cx="177.234" cy="464.809" r="3.042" fill="#a78bfa" class="color000 svgShape"></circle><path d="m167.059 491.553c-1.68 0-3.042 1.362-3.042 3.042s1.362 3.042 3.042 3.042 3.042-1.362 3.042-3.042-1.362-3.042-3.042-3.042z" fill="#a78bfa" class="color000 svgShape"></path><circle cx="157.622" cy="464.809" r="3.042" fill="#a78bfa" class="color000 svgShape"></circle><path d="m147.448 491.553c-1.68 0-3.042 1.362-3.042 3.042s1.362 3.042 3.042 3.042 3.042-1.362 3.042-3.042-1.362-3.042-3.042-3.042z" fill="#a78bfa" class="color000 svgShape"></path><circle cx="138.011" cy="464.809" r="3.042" fill="#a78bfa" class="color000 svgShape"></circle><path d="M127.837 491.553c-1.68 0-3.042 1.362-3.042 3.042s1.362 3.042 3.042 3.042 3.042-1.362 3.042-3.042-1.362-3.042-3.042-3.042zM118.4 461.767c-1.68 0-3.042 1.362-3.042 3.042s1.362 3.042 3.042 3.042 3.042-1.362 3.042-3.042-1.362-3.042-3.042-3.042zM108.226 491.553c-1.68 0-3.042 1.362-3.042 3.042s1.362 3.042 3.042 3.042 3.042-1.362 3.042-3.042c-.001-1.68-1.362-3.042-3.042-3.042zM98.789 461.767c-1.68 0-3.042 1.362-3.042 3.042s1.362 3.042 3.042 3.042 3.042-1.362 3.042-3.042-1.362-3.042-3.042-3.042zM88.615 491.553c-1.68 0-3.042 1.362-3.042 3.042s1.362 3.042 3.042 3.042 3.042-1.362 3.042-3.042c-.001-1.68-1.363-3.042-3.042-3.042zM79.178 461.767c-1.68 0-3.042 1.362-3.042 3.042s1.362 3.042 3.042 3.042 3.042-1.362 3.042-3.042-1.362-3.042-3.042-3.042zM69.003 491.553c-1.68 0-3.042 1.362-3.042 3.042s1.362 3.042 3.042 3.042 3.042-1.362 3.042-3.042-1.362-3.042-3.042-3.042z" fill="#a78bfa" class="color000 svgShape"></path><circle cx="59.567" cy="464.809" r="3.042" fill="#a78bfa" class="color000 svgShape"></circle><path d="M49.392 491.553c-1.68 0-3.042 1.362-3.042 3.042s1.362 3.042 3.042 3.042 3.042-1.362 3.042-3.042-1.362-3.042-3.042-3.042zM29.781 471.942c-1.68 0-3.042 1.362-3.042 3.042s1.362 3.042 3.042 3.042 3.042-1.362 3.042-3.042-1.362-3.042-3.042-3.042z" fill="#a78bfa" class="color000 svgShape"></path><circle cx="39.956" cy="484.421" r="3.042" fill="#a78bfa" class="color000 svgShape"></circle><circle cx="20.345" cy="464.809" r="3.042" fill="#a78bfa" class="color000 svgShape"></circle><path d="m458.139 0h-407.562c-27.889 0-50.577 22.689-50.577 50.578v407.561c0 27.889 22.689 50.578 50.578 50.578h407.561c27.889 0 50.578-22.689 50.578-50.578v-407.561c0-27.889-22.69-50.578-50.578-50.578zm24.972 492.593c-.558-.633-1.365-1.04-2.274-1.04-1.68 0-3.042 1.362-3.042 3.042 0 .416.085.812.236 1.173-5.941 3.154-12.71 4.948-19.892 4.948h-407.561c-6.606 0-12.865-1.512-18.45-4.208.428-.524.695-1.184.695-1.913 0-1.68-1.362-3.042-3.042-3.042-1.305 0-2.408.825-2.84 1.979-2.648-1.774-5.08-3.842-7.264-6.149.216.049.438.079.668.079 1.68 0 3.042-1.362 3.042-3.042s-1.362-3.042-3.042-3.042-3.042 1.362-3.042 3.042c0 .093.019.18.027.271-1.896-2.369-3.544-4.941-4.905-7.682.484-.539.787-1.244.787-2.025 0-1.631-1.286-2.95-2.898-3.027-1.492-4.337-2.314-8.982-2.314-13.818v-407.561c0-23.478 19.1-42.578 42.577-42.578h407.562c20.06 0 36.913 13.948 41.398 32.652-1.232.389-2.131 1.527-2.131 2.888 0 1.68 1.362 3.042 3.042 3.042.026 0 .049-.007.075-.008.124 1.319.194 2.653.194 4.004v9.558c-.09-.008-.177-.027-.269-.027-1.68 0-3.042 1.362-3.042 3.042s1.362 3.042 3.042 3.042c.092 0 .179-.019.269-.027v13.581c-.09-.008-.177-.027-.269-.027-1.68 0-3.042 1.362-3.042 3.042s1.362 3.042 3.042 3.042c.092 0 .179-.019.269-.027v13.582c-.09-.008-.177-.027-.269-.027-1.68 0-3.042 1.362-3.042 3.042s1.362 3.042 3.042 3.042c.092 0 .179-.019.269-.027v13.581c-.09-.008-.177-.027-.269-.027-1.68 0-3.042 1.362-3.042 3.042s1.362 3.042 3.042 3.042c.092 0 .179-.019.269-.027v13.581c-.09-.008-.177-.027-.269-.027-1.68 0-3.042 1.362-3.042 3.042s1.362 3.042 3.042 3.042c.092 0 .179-.019.269-.027v13.581c-.09-.008-.177-.027-.269-.027-1.68 0-3.042 1.362-3.042 3.042s1.362 3.042 3.042 3.042c.092 0 .179-.019.269-.027v13.581c-.09-.008-.177-.027-.269-.027-1.68 0-3.042 1.362-3.042 3.042s1.362 3.042 3.042 3.042c.092 0 .179-.019.269-.027v13.582c-.09-.008-.177-.027-.269-.027-1.68 0-3.042 1.362-3.042 3.042s1.362 3.042 3.042 3.042c.092 0 .179-.019.269-.027v13.582c-.09-.008-.177-.027-.269-.027-1.68 0-3.042 1.362-3.042 3.042s1.362 3.042 3.042 3.042c.092 0 .179-.019.269-.027v13.582c-.09-.008-.177-.027-.269-.027-1.68 0-3.042 1.362-3.042 3.042s1.362 3.042 3.042 3.042c.092 0 .179-.019.269-.027v13.582c-.09-.008-.177-.027-.269-.027-1.68 0-3.042 1.362-3.042 3.042s1.362 3.041 3.042 3.041c.092 0 .179-.019.269-.027v13.582c-.09-.008-.177-.027-.269-.027-1.68 0-3.042 1.362-3.042 3.042s1.362 3.042 3.042 3.042c.092 0 .179-.019.269-.027v13.582c-.09-.008-.177-.027-.269-.027-1.68 0-3.042 1.362-3.042 3.042s1.362 3.042 3.042 3.042c.092 0 .179-.019.269-.027v13.582c-.09-.008-.177-.027-.269-.027-1.68 0-3.042 1.362-3.042 3.042s1.362 3.042 3.042 3.042c.092 0 .179-.019.269-.027v13.581c-.09-.008-.177-.027-.269-.027-1.68 0-3.042 1.362-3.042 3.042s1.362 3.042 3.042 3.042c.092 0 .179-.019.269-.027v13.581c-.09-.008-.177-.027-.269-.027-1.68 0-3.042 1.362-3.042 3.042s1.362 3.042 3.042 3.042c.092 0 .179-.019.269-.027v13.582c-.09-.008-.177-.027-.269-.027-1.68 0-3.042 1.362-3.042 3.042s1.362 3.042 3.042 3.042c.092 0 .179-.019.269-.027v13.582c-.09-.008-.177-.027-.269-.027-1.68 0-3.042 1.362-3.042 3.042s1.362 3.042 3.042 3.042c.092 0 .179-.019.269-.027v13.582c-.09-.008-.177-.027-.269-.027-1.68 0-3.042 1.362-3.042 3.042s1.362 3.042 3.042 3.042c.092 0 .179-.019.269-.027v13.582c-.09-.008-.177-.027-.269-.027-1.68 0-3.042 1.362-3.042 3.042s1.362 3.042 3.042 3.042c.092 0 .179-.019.269-.027v13.581c-.09-.008-.177-.027-.269-.027-1.68 0-3.042 1.362-3.042 3.042s1.362 3.042 3.042 3.042c.09 0 .174-.019.262-.026-.03 5.247-1.018 10.269-2.792 14.907-.23.345-.386.74-.46 1.164-1.154 2.77-2.594 5.39-4.281 7.829-.552-.561-1.318-.91-2.167-.91-1.68 0-3.042 1.362-3.042 3.042 0 1.09.578 2.039 1.44 2.576-1.907 2.057-4.017 3.93-6.297 5.587z" fill="#a78bfa" class="color000 svgShape"></path><path d="M238.334 334.546l4.05 10.732c.604 1.602 2.126 2.589 3.743 2.589.469 0 .946-.083 1.411-.259 2.067-.78 3.11-3.088 2.33-5.154l-20.185-53.485c-.014-.038-.028-.075-.044-.112-.811-1.968-2.708-3.238-4.836-3.238-.002 0-.005 0-.007 0-2.13.003-4.027 1.279-4.869 3.34l-20.369 53.483c-.786 2.065.25 4.375 2.314 5.162 2.066.787 4.375-.251 5.162-2.314l4.092-10.744zm-13.542-35.883l10.523 27.883h-21.141zM327.13 289.802c-.473-2.324-2.457-4.041-4.825-4.175-2.385-.14-4.534 1.348-5.266 3.604-.015.046-.029.092-.042.138l-12.345 43.307-12.79-43.351c-.015-.048-.029-.095-.045-.142-.756-2.248-2.923-3.705-5.304-3.549-2.366.159-4.333 1.896-4.79 4.272l-9.534 52.827c-.393 2.174 1.052 4.254 3.227 4.647 2.169.391 4.253-1.052 4.647-3.226l7.452-41.292 12.185 41.301c.015.047.029.095.045.142.717 2.133 2.705 3.561 4.953 3.561h.025c2.259-.011 4.246-1.462 4.944-3.61.016-.046.029-.093.043-.14l11.767-41.278 7.904 41.356c.415 2.169 2.509 3.597 4.68 3.178 2.17-.414 3.593-2.51 3.178-4.68zM385.958 339.618h-18.648v-18.876h16.979c2.209 0 4-1.791 4-4s-1.791-4-4-4h-16.979v-18.876h18.648c2.209 0 4-1.791 4-4s-1.791-4-4-4h-22.648c-2.209 0-4 1.791-4 4v53.752c0 2.209 1.791 4 4 4h22.648c2.209 0 4-1.791 4-4s-1.791-4-4-4zM149.882 347.866c16.142 0 27.415-12.798 27.415-31.124 0-2.209-1.791-4-4-4h-16.229c-2.209 0-4 1.791-4 4s1.791 4 4 4h11.989c-1.155 9.549-6.612 19.124-19.176 19.124-12.75 0-23.123-10.373-23.123-23.124 0-12.75 10.373-23.123 23.123-23.123 4.635 0 9.104 1.365 12.926 3.946 1.831 1.237 4.316.755 5.554-1.075 1.236-1.831.756-4.317-1.075-5.554-5.148-3.478-11.167-5.317-17.404-5.317-17.161 0-31.123 13.962-31.123 31.123 0 17.162 13.962 31.124 31.123 31.124zM316.428 382.325c2.209 0 4-1.791 4-4s-1.791-4-4-4h-23.438c-2.209 0-4 1.791-4 4v55.624c0 2.209 1.791 4 4 4h23.438c2.209 0 4-1.791 4-4s-1.791-4-4-4h-19.438v-19.812h17.709c2.209 0 4-1.791 4-4s-1.791-4-4-4h-17.709v-19.812zM259.251 374.376c-2.091-.696-4.359.438-5.057 2.535l-15.789 47.529-16.551-47.683c-.725-2.086-3.004-3.192-5.091-2.467s-3.191 3.003-2.468 5.09l19.202 55.321c.746 2.1 2.737 3.504 4.963 3.504.013 0 .024-.001.036-.001 2.24-.015 4.23-1.45 4.96-3.598l18.329-55.174c.697-2.095-.437-4.36-2.534-5.056zM385.778 392.658c0-10.25-8.71-18.589-19.415-18.589h-14.917c-.003 0-.006.001-.009.001s-.006-.001-.009-.001c-2.209 0-4 1.791-4 4v56.136c0 2.209 1.791 4 4 4s4-1.791 4-4v-22.915c.275-.002.557-.003.849-.004l22.499 25.562c.791.898 1.895 1.357 3.005 1.357.938 0 1.881-.329 2.641-.997 1.658-1.46 1.819-3.987.36-5.645l-17.902-20.34c10.464-.266 18.898-8.482 18.898-18.565zm-19.415 10.589c-2.495 0-7.358.023-10.837.042-.02-3.434-.043-8.202-.043-10.631 0-2.034-.014-7.011-.024-10.589h10.904c6.188 0 11.415 4.849 11.415 10.589s-5.227 10.589-11.415 10.589zM155.007 374.069c-17.683 0-32.068 14.386-32.068 32.068 0 17.683 14.386 32.068 32.068 32.068s32.068-14.386 32.068-32.068-14.386-32.068-32.068-32.068zm0 56.136c-13.271 0-24.068-10.797-24.068-24.068s10.797-24.068 24.068-24.068 24.068 10.797 24.068 24.068-10.797 24.068-24.068 24.068zM297.281 57.478h-85.846c-25.859 0-46.897 21.038-46.897 46.897v75.356c0 22.605 16.077 41.525 37.397 45.929v15.189c0 10.67 8.681 19.35 19.351 19.35h66.145c10.669 0 19.35-8.68 19.35-19.35v-15.189c21.321-4.403 37.398-23.323 37.398-45.929v-75.356c0-25.859-21.038-46.897-46.898-46.897zm-87.345 183.37v-14.258c.499.016.997.038 1.5.038h15.008v25.571h-5.157c-6.26-.001-11.351-5.092-11.351-11.351zm40.422-14.22v25.571h-15.915v-25.571zm25.283 0v25.571h-17.282v-25.571zm23.139 14.22c0 6.258-5.092 11.35-11.35 11.35h-3.79v-25.571h13.641c.503 0 1-.023 1.499-.038zm37.399-61.117c0 21.448-17.449 38.897-38.898 38.897h-85.846c-21.448 0-38.897-17.449-38.897-38.897v-75.356c0-21.448 17.449-38.897 38.897-38.897h85.846c21.448 0 38.898 17.449 38.898 38.897z" fill="#a78bfa" class="color000 svgShape"></path><path d="M227.541 118.703h-20.008c-8.704 0-15.785 7.082-15.785 15.786v20.008c0 8.704 7.081 15.786 15.785 15.786h20.008c8.704 0 15.786-7.082 15.786-15.786v-20.008c0-8.704-7.082-15.786-15.786-15.786zM304.485 118.703h-20.008c-8.704 0-15.785 7.082-15.785 15.786v20.008c0 8.704 7.081 15.786 15.785 15.786h20.008c8.704 0 15.786-7.082 15.786-15.786v-20.008c.001-8.704-7.082-15.786-15.786-15.786zM250.177 191.907c0 3.304-2.678 5.982-5.982 5.982s-5.982-2.678-5.982-5.982 2.678-5.982 5.982-5.982 5.982 2.678 5.982 5.982zM270.504 191.907c0 3.304-2.678 5.982-5.982 5.982s-5.982-2.678-5.982-5.982 2.678-5.982 5.982-5.982c3.303 0 5.982 2.678 5.982 5.982z" fill="#a78bfa" class="color000 svgShape"></path></svg></g></svg>